<svg width="120" height="24" viewBox="0 0 120 24" fill="none" xmlns="http://www.w3.org/2000/svg">
<g clip-path="url(#clip0_3_540)">
<path d="M12 17.5195L16.15 20.0295C16.91 20.4895 17.84 19.8095 17.64 18.9495L16.54 14.2295L20.21 11.0495C20.88 10.4695 20.5199 9.36952 19.6399 9.29952L14.81 8.88952L12.92 4.42952C12.58 3.61952 11.42 3.61952 11.08 4.42952L9.18995 8.87952L4.35995 9.28952C3.47995 9.35952 3.11995 10.4595 3.78995 11.0395L7.45995 14.2195L6.35995 18.9395C6.15995 19.7995 7.08995 20.4795 7.84995 20.0195L12 17.5195Z" fill="#D73434"/>
<path d="M84 17.5195L88.15 20.0295C88.91 20.4895 89.84 19.8095 89.64 18.9495L88.54 14.2295L92.21 11.0495C92.88 10.4695 92.5199 9.36952 91.6399 9.29952L86.81 8.88952L84.92 4.42952C84.58 3.61952 83.42 3.61952 83.08 4.42952L81.19 8.87952L76.36 9.28952C75.48 9.35952 75.12 10.4595 75.79 11.0395L79.46 14.2195L78.36 18.9395C78.16 19.7995 79.09 20.4795 79.85 20.0195L84 17.5195Z" fill="#D73434"/>
<path d="M60 17.5195L64.15 20.0295C64.91 20.4895 65.84 19.8095 65.64 18.9495L64.54 14.2295L68.21 11.0495C68.88 10.4695 68.5199 9.36952 67.6399 9.29952L62.81 8.88952L60.92 4.42952C60.58 3.61952 59.42 3.61952 59.08 4.42952L57.19 8.87952L52.36 9.28952C51.48 9.35952 51.12 10.4595 51.79 11.0395L55.46 14.2195L54.36 18.9395C54.16 19.7995 55.09 20.4795 55.85 20.0195L60 17.5195Z" fill="#D73434"/>
<path d="M36 17.5195L40.15 20.0295C40.91 20.4895 41.84 19.8095 41.64 18.9495L40.54 14.2295L44.21 11.0495C44.88 10.4695 44.5199 9.36952 43.6399 9.29952L38.81 8.88952L36.92 4.42952C36.58 3.61952 35.42 3.61952 35.08 4.42952L33.19 8.87952L28.36 9.28952C27.48 9.35952 27.12 10.4595 27.79 11.0395L31.46 14.2195L30.36 18.9395C30.16 19.7995 31.09 20.4795 31.85 20.0195L36 17.5195Z" fill="#D73434"/>
<path d="M108 17.5195L112.15 20.0295C112.91 20.4895 113.84 19.8095 113.64 18.9495L112.54 14.2295L116.21 11.0495C116.88 10.4695 116.52 9.36952 115.64 9.29952L110.81 8.88952L108.92 4.42952C108.58 3.61952 107.42 3.61952 107.08 4.42952L105.19 8.87952L100.36 9.28952C99.48 9.35952 99.12 10.4595 99.79 11.0395L103.46 14.2195L102.36 18.9395C102.16 19.7995 103.09 20.4795 103.85 20.0195L108 17.5195Z" fill="#D73434"/>
</g>
<defs>
<clipPath id="clip0_3_540">
<rect width="120" height="24" fill="white"/>
</clipPath>
</defs>
</svg>
